# Blender v2.70 (sub 0) OBJ File: 'skybox.blend'
# www.blender.org
mtllib skybox.mtl
o Cube
v 20.000000 -20.000000 -19.999998
v 20.000000 -20.000000 20.000000
v -20.000002 -20.000000 19.999996
v -19.999992 -20.000000 -20.000008
v 20.000010 20.000000 -19.999989
v 19.999987 20.000000 20.000011
v -20.000008 20.000000 19.999992
v -19.999998 20.000000 -20.000000
vt 0.666667 0.500000
vt 1.000000 0.500000
vt 1.000000 1.000000
vt 0.666667 1.000000
vt 0.000000 1.000000
vt 0.000000 0.500000
vt 0.333333 0.500000
vt 0.333333 1.000000
vt 0.000000 0.000000
vt 0.333333 0.000000
vt 0.666667 0.000000
vt 1.000000 0.000000
vn 0.000000 -1.000000 0.000000
vn 0.000000 1.000000 -0.000000
vn 1.000000 0.000000 0.000000
vn -0.000000 -0.000000 1.000000
vn -1.000000 -0.000000 -0.000000
vn 0.000000 0.000000 -1.000000
usemtl Material
s off
f 1/1/1 2/2/1 3/3/1 4/4/1
f 5/5/2 8/6/2 7/7/2 6/8/2
f 1/6/3 5/9/3 6/10/3 2/7/3
f 2/7/4 6/10/4 7/11/4 3/1/4
f 3/11/5 7/12/5 8/2/5 4/1/5
f 5/7/6 1/1/6 4/4/6 8/8/6
